<svg xmlns="http://www.w3.org/2000/svg" viewBox="0 0 1000 1000">
  <g transform="translate(500,500) scale(1.11) translate(-500,-500)" fill="none">
    <path
      d="M 679 321 A 180 180 0 1 0 321 321 A 180 180 0 1 0 321 679 A 180 180 0 1 0 679 679 A 180 180 0 1 0 679 321 Z"
      stroke="#F5C518"
      stroke-width="50"
      stroke-linejoin="round"
    />
    <g fill="#F5C518">
      <path d="M 500 290 Q 575 380 500 465 Q 425 380 500 290 Z"/>
      <path d="M 710 500 Q 620 575 535 500 Q 620 425 710 500 Z"/>
      <path d="M 500 710 Q 575 620 500 535 Q 425 620 500 710 Z"/>
      <path d="M 290 500 Q 380 575 465 500 Q 380 425 290 500 Z"/>
      <circle cx="500" cy="500" r="28"/>
    </g>
  </g>
</svg>
